# AST/ASF file generated using VICON BodyLanguage
# -----------------------------------------------
:version 1.10
:name VICON
:units
  mass 1.0
  length 0.45
  angle deg
:documentation
   .ast/.asf automatically generated from VICON data using
   VICON BodyBuilder and BodyLanguage model FoxedUp or BRILLIANT.MOD
:root
   order TX TY TZ RX RY RZ
   axis XYZ
   position 0 0 0  
   orientation 0 0 0 
:bonedata
  begin
     id 1 
     name lhipjoint
     direction 0.521689 -0.742065 0.420928 
     length 2.47002 
     axis 0 0 0  XYZ
  end
  begin
     id 2 
     name lfemur
     direction 0.34202 -0.939693 0  
     length 7.24654  
     axis 0 0 20  XYZ
    dof rx ry rz
    limits (-160.0 20.0)
           (-70.0 70.0)
           (-60.0 70.0)
  end
  begin
     id 3 
     name ltibia
     direction 0.34202 -0.939693 0   
     length 8.04849   
     axis 0 0 20   XYZ
    dof rx
    limits (-10.0 170.0)
  end
  begin
     id 4 
     name lfoot
     direction 0.0745411 -0.2048 0.975961   
     length 1.72367   
     axis -90 7.62852e-016 20   XYZ
    dof rx rz
    limits (-45.0 90.0)
           (-70.0 20.0)
  end
  begin
     id 5 
     name ltoes
     direction 1.53556e-011 -4.21901e-011 1   
     length 0.87311   
     axis -90 7.62852e-016 20   XYZ
    dof rx
    limits (-90.0 20.0)
  end
  begin
     id 6 
     name rhipjoint
     direction -0.52849 -0.738415 0.418857   
     length 2.48223  
     axis 0 0 0  XYZ 
  end
  begin
     id 7 
     name rfemur
     direction -0.34202 -0.939693 0   
     length 7.15571   
     axis 0 0 -20   XYZ
    dof rx ry rz
    limits (-160.0 20.0)
           (-70.0 70.0)
           (-70.0 60.0)
  end
  begin
     id 8 
     name rtibia
     direction -0.34202 -0.939693 0   
     length 7.81659   
     axis 0 0 -20   XYZ
    dof rx
    limits (-10.0 170.0)
 end
 begin
     id 9 
     name rfoot
     direction -0.0917348 -0.252039 0.963359   
     length 1.84382  
     axis -90 -7.62852e-016 -20   XYZ
    dof rx rz
    limits (-45.0 90.0)
           (-20.0 70.0)
  end
  begin
     id 10 
     name rtoes
     direction -1.53551e-011 -4.21879e-011 1   
     length 0.927771   
     axis -90 -7.62852e-016 -20   XYZ
    dof rx
    limits (-90.0 20.0)
  end
  begin
     id 11 
     name lowerback
     direction 0.00583058 0.999822 0.0179296   
     length 2.1429   
     axis 0 0 0   XYZ
    dof rx ry rz
    limits (-20.0 45.0)
           (-30.0 30.0)
           (-30.0 30.0)
  end
  begin
     id 12 
     name upperback
     direction -0.0137999 0.999752 -0.0175071   
     length 2.14252   
     axis 0 0 0   XYZ
    dof rx ry rz
    limits (-20.0 45.0)
           (-30.0 30.0)
           (-30.0 30.0)
  end
  begin
     id 13 
     name thorax
     direction -0.0158036 0.99955 -0.0254909   
     length 2.1383   
     axis 0 0 0   XYZ
    dof rx ry rz
    limits (-20.0 45.0)
           (-30.0 30.0)
           (-30.0 30.0)
  end
  begin
     id 14 
     name lowerneck
     direction -0.0101179 0.999403 -0.0330262   
     length 1.65808   
     axis 0 0 0   XYZ
    dof rx ry rz
    limits (-20.0 45.0)
           (-30.0 30.0)
           (-30.0 30.0)
  end
  begin
     id 15 
     name upperneck
     direction 0.0497734 0.995978 -0.074501   
     length 1.5897   
     axis 0 0 0   XYZ
    dof rx ry rz
    limits (-20.0 45.0)
           (-30.0 30.0)
           (-30.0 30.0)
  end
  begin
     id 16
     name head
     direction 0.0189524 0.999519 -0.0245438  
     length 1.74024  
     axis 0 0 0   XYZ
    dof rx ry rz
    limits (-20.0 45.0)
           (-30.0 30.0)
           (-30.0 30.0)
  end
  begin
     id 17 
     name lclavicle
     direction 0.945604 0.324422 0.0241537  
     length 3.59089  
     axis 0 0 0   XYZ
    dof ry rz
    limits (-20.0 10.0)
           (0.0 20.0)
  end
  begin
     id 18 
     name lhumerus
     direction 1 -4.48964e-011 -2.63524e-027   
     length 5.2391   
     axis 180 -30 -90   XYZ
    dof rx ry rz
    limits (-60.0 90.0)
           (-90.0 90.0)
           (-90.0 90.0)
  end
  begin
     id 19
     name lradius
     direction 1 -4.48969e-011 3.86978e-028   
     length 3.31467   
     axis 180 -30 -90   XYZ
    dof rx
    limits (-10.0 170.0)
  end
  begin
     id 20
     name lwrist
     direction 1 -4.48963e-011 7.20928e-028   
     length 1.65734   
     axis -5.52449e-016 90 90   XYZ
    dof ry
    limits (-180.0 0.0)
 end
  begin
     id 21 
     name lhand
     direction 1 -4.48964e-011 1.44186e-027   
     length 0.9659   
     axis -9.20027e-016 90 90   XYZ
    dof rx rz
    limits (-90.0 90.0)
           (-45.0 45.0)
  end
  begin
     id 22 
     name lfingers
     direction 1 -4.48965e-011 2.88371e-027   
     length 0.778733   
     axis -1.84005e-015 90 90   XYZ
    dof rx
    limits (0.0 90.0)
  end
  begin
     id 23
     name lthumb
     direction 0.707107 -6.34931e-011 0.707107   
     length 1.11811   
     axis -90 45 2.85299e-015   XYZ
    dof rx rz
    limits (-45.0 45.0)
           (-45.0 45.0)
  end
  begin
     id 24 
     name rclavicle
     direction -0.923762 0.370785 0.0958234   
     length 3.54196  
     axis 0 0 0   XYZ 
    dof ry rz
    limits (-10.0 20.0)
           (-20.0 0.0)
  end
  begin
     id 25 
     name rhumerus
     direction -1 -4.48966e-011 1.18702e-017  
     length 5.30252   
     axis 180 30 90   XYZ
    dof rx ry rz
    limits (-90.0 60.0)
           (-90.0 90.0)
           (-90.0 90.0)
  end
  begin
     id 26 
     name rradius
     direction -1 -4.48966e-011 4.46736e-027   
     length 3.67875   
     axis 180 30 90   XYZ
    dof rx
    limits (-10.0 170.0)
  end
  begin
     id 27 
     name rwrist
     direction -1 -4.48966e-011 7.20928e-028   
     length 1.83937   
     axis -5.52449e-016 -90 -90   XYZ
    dof ry
    limits (-180.0 0.0)
  end
  begin
     id 28
     name rhand
     direction -1 -4.48973e-011 1.44186e-027   
     length 0.594811   
     axis -9.20027e-016 -90 -90   XYZ
    dof rx rz
    limits (-90.0 90.0)
           (-45.0 45.0)
  end
  begin
     id 29
     name rfingers
     direction -1 -4.48963e-011 2.88371e-027   
     length 0.479552   
     axis -1.84005e-015 -90 -90   XYZ
    dof rx
    limits (0.0 90.0)
  end
  begin
     id 30
     name rthumb
     direction -0.707107 -6.34932e-011 0.707107   
     length 0.688544   
     axis -90 -45 -2.85299e-015   XYZ
    dof rx rz
    limits (-45.0 45.0)
           (-45.0 45.0)
  end
:hierarchy
  begin
    root lhipjoint rhipjoint lowerback
    lhipjoint lfemur
    lfemur ltibia
    ltibia lfoot
    lfoot ltoes
    rhipjoint rfemur
    rfemur rtibia
    rtibia rfoot
    rfoot rtoes
    lowerback upperback
    upperback thorax
    thorax lowerneck lclavicle rclavicle
    lowerneck upperneck
    upperneck head
    lclavicle lhumerus
    lhumerus lradius
    lradius lwrist
    lwrist lhand lthumb
    lhand lfingers
    rclavicle rhumerus
    rhumerus rradius
    rradius rwrist
    rwrist rhand rthumb
    rhand rfingers
  end

#!OML:ASF E:\acrobat2\Project_11_07_03\Capture day 1\Session 1\Acrobat.ASF
:FULLY-SPECIFIED
:DEGREES
321
root 8.70592 15.0377 16.0857 28.7712 4.37523 4.17086
lowerback 35.0926 -0.72275 -0.312148
upperback 10.2372 -0.955955 -0.549048
thorax -6.42575 -0.400574 -0.0747445
lowerneck -1.44932 -2.72684 0.211507
upperneck -6.20244 -3.69291 -0.121108
head -1.68176 -1.86308 -0.0335506
rclavicle 1.74931e-014 1.25234e-014
rhumerus -3.57595 14.5336 -72.961
rradius 25.3059
rwrist 15.108
rhand -14.9944 -44.2679
rfingers 7.12502
rthumb 11.1702 -73.9505
lclavicle 1.74931e-014 1.25234e-014
lhumerus 10.337 -42.2197 66.206
lradius 19.4047
lwrist 6.46538
lhand -28.8095 -10.1604
lfingers 7.12502
lthumb -2.16774 19.8084
rfemur -86.294 -4.68303 18.9837
rtibia 67.0708
rfoot -13.4725 -13.1468
rtoes 6.70281
lfemur -85.4265 -4.95438 -25.24
ltibia 67.6335
lfoot -4.46183 -7.98122
ltoes 41.017
322
root 8.69671 14.8226 15.9993 28.3508 4.60246 4.55697
lowerback 35.9626 -0.730861 -0.510513
upperback 10.3091 -1.02319 -0.531235
thorax -6.52218 -0.42804 0.0721944
lowerneck -1.4532 -2.78352 0.254858
upperneck -6.41233 -3.76968 -0.082846
head -1.74876 -1.90384 -0.0260261
rclavicle 7.55382e-015 2.98177e-016
rhumerus -3.33139 13.818 -72.7893
rradius 24.9141
rwrist 15.9038
rhand -15.2136 -44.5187
rfingers 7.12502
rthumb 10.9587 -74.2127
lclavicle 7.55382e-015 2.98177e-016
lhumerus 10.8236 -43.1087 65.6397
lradius 19.6367
lwrist 6.94314
lhand -29.1057 -10.2596
lfingers 7.12502
lthumb -2.45377 19.7061
rfemur -87.8241 -5.09228 18.9651
rtibia 69.381
rfoot -14.3943 -13.8624
rtoes 7.76191
lfemur -86.7315 -5.36113 -25.673
ltibia 69.8564
lfoot -4.70677 -8.19076
ltoes 40.6448
323
root 8.69316 14.6167 15.9084 27.5921 4.52648 4.60855
lowerback 37.154 -0.61998 -0.643937
upperback 10.4723 -0.936503 -0.546688
thorax -6.75225 -0.383641 0.100635
lowerneck -1.38303 -2.82807 0.21767
upperneck -6.78954 -3.82196 0.124065
head -1.87759 -1.93406 0.0499528
rclavicle -1.47101e-014 1.69961e-014
rhumerus -3.09777 13.3782 -72.6298
rradius 24.5475
rwrist 16.5884
rhand -15.1499 -44.7017
rfingers 7.12502
rthumb 11.0202 -74.3925
lclavicle -1.47101e-014 1.69961e-014
lhumerus 11.3578 -44.1946 64.9358
lradius 19.9139
lwrist 7.65348
lhand -29.0555 -10.175
lfingers 7.12502
lthumb -2.40535 19.7912
rfemur -88.8787 -5.00368 19.0092
rtibia 71.4178
rfoot -15.1303 -14.2783
rtoes 8.33181
lfemur -87.6933 -5.38421 -25.82
ltibia 71.9504
lfoot -5.05447 -8.32811
ltoes 39.4956
324
root 8.68935 14.4082 15.8101 26.8698 4.54081 4.47476
lowerback 38.2635 -0.574697 -0.522411
upperback 10.6152 -0.842052 -0.559907
thorax -6.9676 -0.334815 -0.00696576
lowerneck -1.46586 -2.88298 0.133532
upperneck -6.99496 -3.88491 0.366682
head -1.92269 -1.9695 0.140889
rclavicle 9.93923e-015 -4.37326e-015
rhumerus -2.89753 12.9458 -72.5407
rradius 24.1169
rwrist 17.3299
rhand -15.2195 -44.6205
rfingers 7.12502
rthumb 10.953 -74.3148
lclavicle 9.93923e-015 -4.37326e-015
lhumerus 11.8787 -45.2528 64.2354
lradius 20.0814
lwrist 7.773
lhand -28.6325 -10.1372
lfingers 7.12502
lthumb -1.99676 19.8332
rfemur -90.0085 -4.83611 19.2553
rtibia 73.5888
rfoot -15.9166 -14.5375
rtoes 9.01662
lfemur -88.7561 -5.39918 -25.7134
ltibia 74.0832
lfoot -5.37781 -8.53227
ltoes 38.6995
325
root 8.68066 14.1981 15.7127 26.0607 4.47459 4.40433
lowerback 39.4567 -0.472141 -0.562394
upperback 10.715 -0.738068 -0.576548
thorax -7.24243 -0.282659 -0.0390648
lowerneck -1.5606 -2.95424 -0.0586451
upperneck -7.05871 -3.96851 0.61841
head -1.91725 -2.01248 0.250999
rclavicle 9.54166e-015 -5.96354e-016
rhumerus -2.7631 12.5326 -72.4942
rradius 23.7054
rwrist 17.9843
rhand -15.215 -44.4438
rfingers 7.12502
rthumb 10.9574 -74.1378
lclavicle 9.54166e-015 -5.96354e-016
lhumerus 12.1978 -46.151 63.7677
lradius 20.0882
lwrist 7.26366
lhand -28.741 -10.2683
lfingers 7.12502
lthumb -2.10153 19.7011
rfemur -91.0523 -4.60857 19.4167
rtibia 75.8559
rfoot -16.6467 -14.9541
rtoes 9.21917
lfemur -89.6337 -5.33549 -25.7239
ltibia 76.0363
lfoot -5.72599 -8.56401
ltoes 39.5208
326
root 8.67073 13.981 15.6199 25.1284 4.33288 4.52624
lowerback 40.6363 -0.322749 -0.851782
upperback 10.8473 -0.678621 -0.638702
thorax -7.45988 -0.250901 0.0243424
lowerneck -1.57119 -2.9941 -0.279652
upperneck -7.16823 -4.00067 1.01744
head -1.93787 -2.03198 0.413332
rclavicle -5.56597e-015 8.34896e-015
rhumerus -2.7216 12.4982 -72.4941
rradius 23.4634
rwrist 18.1555
rhand -15.2436 -44.5047
rfingers 7.12502
rthumb 10.9298 -74.2002
lclavicle -5.56597e-015 8.34896e-015
lhumerus 12.3609 -46.1655 63.7661
lradius 19.7321
lwrist 6.37164
lhand -29.3806 -10.574
lfingers 7.12502
lthumb -2.71924 19.3884
rfemur -91.8273 -4.42134 19.289
rtibia 77.842
rfoot -17.025 -15.6591
rtoes 8.39567
lfemur -90.3735 -5.28965 -26.0035
ltibia 78.0229
lfoot -5.84057 -8.70846
ltoes 42.687
327
root 8.66205 13.7596 15.5238 24.137 4.29694 4.496
lowerback 41.7806 -0.241885 -1.00701
upperback 10.9918 -0.651361 -0.661833
thorax -7.64025 -0.234646 0.0704685
lowerneck -1.71693 -2.97831 -0.389885
upperneck -7.13879 -3.96383 1.29324
head -1.89527 -2.01634 0.513718
rclavicle -3.02153e-014 3.37934e-015
rhumerus -2.66225 12.7138 -72.5314
rradius 23.2498
rwrist 18.2743
rhand -15.3016 -44.6732
rfingers 7.12502
rthumb 10.8739 -74.3717
lclavicle -3.02153e-014 3.37934e-015
lhumerus 12.3709 -45.8678 63.9039
lradius 19.5065
lwrist 5.90163
lhand -29.353 -10.7329
lfingers 7.12502
lthumb -2.69261 19.2298
rfemur -92.4943 -4.2201 19.3205
rtibia 79.6806
rfoot -17.388 -16.4711
rtoes 7.30712
lfemur -91.1779 -5.22397 -26.1468
ltibia 80.4799
lfoot -17.586 -0.341311
ltoes 44.526
328
root 8.65199 13.5375 15.4237 23.12 4.44705 4.16955
lowerback 42.9051 -0.252023 -0.853745
upperback 11.1118 -0.600625 -0.583563
thorax -7.83186 -0.209772 0.055639
lowerneck -1.92593 -3.0039 -0.294599
upperneck -7.07927 -4.00561 1.17473
head -1.84348 -2.03705 0.456464
rclavicle -4.77083e-015 -4.47266e-015
rhumerus -2.60966 12.8458 -72.5317
rradius 23.0755
rwrist 18.6789
rhand -14.9027 -44.7774
rfingers 7.12502
rthumb 11.2586 -74.4552
lclavicle -4.77083e-015 -4.47266e-015
lhumerus 12.1981 -45.4875 64.2846
lradius 19.1687
lwrist 5.32845
lhand -29.2139 -11.1235
lfingers 7.12502
lthumb -2.55828 18.8409
rfemur -93.2349 -3.98482 19.676
rtibia 81.6623
rfoot -17.6965 -16.2679
rtoes 7.05889
lfemur -92.0021 -5.11837 -25.9535
ltibia 83.2076
lfoot -29.4259 8.41146
ltoes 43.9124
329
root 8.64026 13.3111 15.3218 22.1284 4.5448 4.02702
lowerback 43.9259 -0.226752 -0.873882
upperback 11.2401 -0.575394 -0.51944
thorax -7.97048 -0.19711 0.124742
lowerneck -2.14949 -3.03917 -0.107559
upperneck -7.12056 -4.07104 0.881198
head -1.82748 -2.06902 0.331318
rclavicle 2.38542e-015 -2.98177e-015
rhumerus -2.61669 13.144 -72.5361
rradius 22.967
rwrist 18.725
rhand -15.0903 -44.9554
rfingers 7.12502
rthumb 11.0776 -74.643
lclavicle 2.38542e-015 -2.98177e-015
lhumerus 12.1828 -45.6139 64.4521
lradius 18.7323
lwrist 5.13885
lhand -29.2132 -11.4244
lfingers 7.12502
lthumb -2.55757 18.54
rfemur -94.2094 -3.82628 19.8304
rtibia 83.8856
rfoot -18.0122 -16.0598
rtoes 7.30262
lfemur -92.7717 -5.05915 -25.956
ltibia 85.7491
lfoot -41.9852 16.4116
ltoes 44.3482
330
root 8.62869 13.0745 15.2254 21.1082 4.5749 3.91401
lowerback 44.8063 -0.16401 -0.94276
upperback 11.3646 -0.528065 -0.466175
thorax -8.06528 -0.175359 0.197353
lowerneck -2.25896 -3.0315 -0.0048621
upperneck -7.16914 -4.07562 0.629617
head -1.83175 -2.06908 0.235041
rclavicle -1.47101e-014 4.67144e-015
rhumerus -2.76433 13.4667 -72.5906
rradius 22.8622
rwrist 18.6679
rhand -15.5123 -45.0555
rfingers 7.12502
rthumb 10.6706 -74.7646
lclavicle -1.47101e-014 4.67144e-015
lhumerus 12.1779 -46.0817 64.5627
lradius 18.2632
lwrist 5.16814
lhand -29.1396 -11.1605
lfingers 7.12502
lthumb -2.4865 18.8047
rfemur -95.3346 -3.62942 20.0128
rtibia 86.267
rfoot -18.2013 -15.9604
rtoes 7.43991
lfemur -93.5545 -4.92827 -26.0536
ltibia 87.8548
lfoot -55.2764 24.6368
ltoes 43.672
331
root 8.62513 12.8272 15.1449 19.9863 4.76266 3.52181
lowerback 45.4963 -0.241587 -0.590772
upperback 11.5658 -0.46059 -0.379314
thorax -8.02055 -0.144718 0.0824063
lowerneck -2.32352 -3.05389 -0.104581
upperneck -7.20237 -4.10614 0.619629
head -1.82931 -2.08177 0.247891
rclavicle -1.70955e-014 1.48095e-014
rhumerus -2.93717 13.4095 -72.6543
rradius 22.7474
rwrist 19.1339
rhand -15.0224 -44.9468
rfingers 7.12502
rthumb 11.1432 -74.6309
lclavicle -1.70955e-014 1.48095e-014
lhumerus 12.0563 -46.4492 64.8875
lradius 17.7561
lwrist 5.05302
lhand -29.3258 -10.7982
lfingers 7.12502
lthumb -2.66639 19.1649
rfemur -96.3295 -3.48725 20.6111
rtibia 88.5956
rfoot -18.2922 -16.0072
rtoes 7.0874
lfemur -94.4887 -4.82618 -25.92
ltibia 89.3309
lfoot -70.0557 32.8276
ltoes 41.9275
